<svg id="visual" viewBox="0 0 960 540" width="960" height="540" xmlns="http://www.w3.org/2000/svg" xmlns:xlink="http://www.w3.org/1999/xlink" version="1.1"><rect x="0" y="0" width="960" height="540" fill="#d8b0ff"></rect><path d="M0 430L20 430.7C40 431.3 80 432.7 120 437.3C160 442 200 450 240 445.2C280 440.3 320 422.7 360 423C400 423.3 440 441.7 480 443.5C520 445.3 560 430.7 600 420.7C640 410.7 680 405.3 720 410.2C760 415 800 430 840 437.2C880 444.3 920 443.7 940 443.3L960 443L960 541L940 541C920 541 880 541 840 541C800 541 760 541 720 541C680 541 640 541 600 541C560 541 520 541 480 541C440 541 400 541 360 541C320 541 280 541 240 541C200 541 160 541 120 541C80 541 40 541 20 541L0 541Z" fill="#0b0908"></path></svg>